<?xml version="1.0" encoding="UTF-8" standalone="no"?>
<!DOCTYPE svg PUBLIC "-//W3C//DTD SVG 1.1//EN" "http://www.w3.org/Graphics/SVG/1.1/DTD/svg11.dtd">
<svg width="100%" height="100%" viewBox="0 0 500 500" version="1.1" xmlns="http://www.w3.org/2000/svg" xmlns:xlink="http://www.w3.org/1999/xlink" xml:space="preserve" xmlns:serif="http://www.serif.com/" style="fill-rule:evenodd;clip-rule:evenodd;stroke-linejoin:round;stroke-miterlimit:2;">
    <g transform="matrix(0.463469,0,0,0.463469,-34.4116,122.022)">
        <g transform="matrix(306.737,0,0,306.737,67.9578,385.915)">
            <path d="M0.259,0.922L0.259,-1.16L0.023,-1.204L0.023,-1.498L0.591,-1.355L0.591,-1.1L0.354,-1.143L0.354,0.89L0.259,0.922Z" style="fill-rule:nonzero;"/>
        </g>
        <g transform="matrix(306.737,0,0,306.737,255.325,385.915)">
            <path d="M0.08,0.777L0.08,-1.33L0.175,-1.306L0.175,-0.463L0.547,-0.459L0.547,-1.212L0.642,-1.188L0.642,0.59L0.547,0.621L0.547,-0.243L0.175,-0.221L0.175,0.746L0.08,0.777Z" style="fill-rule:nonzero;"/>
        </g>
        <g transform="matrix(306.737,0,0,306.737,476.84,385.915)">
            <path d="M0.079,0.536L0.079,-1.148L0.396,-1.068C0.448,-1.055 0.503,-1.032 0.542,-0.992C0.581,-0.953 0.606,-0.896 0.621,-0.844L0.651,-0.635C0.651,-0.552 0.638,-0.469 0.602,-0.393C0.569,-0.327 0.519,-0.279 0.449,-0.255L0.506,-0.187L0.585,-0.01L0.709,0.326L0.59,0.365L0.496,0.098L0.427,-0.092L0.379,-0.186L0.336,-0.223L0.283,-0.227L0.173,-0.218L0.173,0.505L0.079,0.536ZM0.173,-0.405L0.377,-0.406L0.479,-0.434L0.534,-0.519L0.553,-0.644C0.553,-0.703 0.544,-0.762 0.516,-0.814C0.492,-0.862 0.453,-0.892 0.4,-0.901L0.173,-0.944L0.173,-0.405Z" style="fill-rule:nonzero;"/>
        </g>
        <g transform="matrix(306.737,0,0,306.737,698.356,385.915)">
            <path d="M0.093,0.29L0.093,-0.962L0.188,-0.938L0.188,0.258L0.093,0.29Z" style="fill-rule:nonzero;"/>
        </g>
        <g transform="matrix(306.737,0,0,306.737,783.577,385.915)">
            <path d="M0.082,0.201L0.082,-0.895L0.565,-0.773L0.565,-0.677L0.177,-0.748L0.177,-0.426L0.513,-0.425L0.513,-0.326L0.177,-0.303L0.177,0.169L0.082,0.201Z" style="fill-rule:nonzero;"/>
        </g>
        <g transform="matrix(306.737,0,0,306.737,970.945,385.915)">
            <path d="M0.259,-0.063L0.259,-0.621L0.023,-0.664L0.023,-0.755L0.591,-0.612L0.591,-0.56L0.354,-0.603L0.354,-0.094L0.259,-0.063Z" style="fill-rule:nonzero;"/>
        </g>
    </g>
</svg>
